# xmcd CD database file
#
# Track frame offsets:
#	150
#	16439
#	28698
#	42114
#	54899
#	72593
#	90452
#	110494
#	123900
#	139579
#
# Disc length: 2107 seconds
#
# Revision: 1
# Processed by: cddbd v1.5.2PL0 Copyright (c) Steve Scherf et al.
# Submitted via: CDex 1.51
#
DISCID=7e08390a
DTITLE=Emil Friis - And The Absolute Believers - Mutineer
DYEAR=2007
DGENRE=Country
TTITLE0=Seena's Song
TTITLE1=Land Of Broken Dreams
TTITLE2=A Little Something
TTITLE3=The Man In The Wind
TTITLE4=Bare Rooms
TTITLE5=The Wicked Messenger
TTITLE6=Green Eyed Little Girl
TTITLE7=Mutineer
TTITLE8=Living Hell
TTITLE9=Baby, I'm Your Man
EXTD=YEAR: 2007
EXTT0=
EXTT1=
EXTT2=
EXTT3=
EXTT4=
EXTT5=
EXTT6=
EXTT7=
EXTT8=
EXTT9=
PLAYORDER=
